<?xml version="1.0" standalone="no"?><!DOCTYPE svg PUBLIC "-//W3C//DTD SVG 1.1//EN" "http://www.w3.org/Graphics/SVG/1.1/DTD/svg11.dtd"><svg t="1760326192123" class="icon" viewBox="0 0 1261 1024" version="1.1" xmlns="http://www.w3.org/2000/svg" p-id="21074" xmlns:xlink="http://www.w3.org/1999/xlink" width="246.2890625" height="200"><path d="M941.481787 812.865979H190.055808a21.113402 21.113402 0 0 0-14.920138 6.193265l-168.907216 168.907216A21.113402 21.113402 0 0 0 21.148591 1024h751.425979a21.113402 21.113402 0 0 0 14.955327-6.193265l168.907216-168.907216a21.113402 21.113402 0 0 0-14.955326-36.03354zM1240.588316 0H489.162337a21.113402 21.113402 0 0 0-14.920138 6.193265l-168.907216 168.907216A21.113402 21.113402 0 0 0 320.25512 211.134021h751.42598a21.113402 21.113402 0 0 0 14.955326-6.193265l168.907217-168.907216A21.113402 21.113402 0 0 0 1240.588316 0zM517.524674 775.002612l496.164948-496.164949A21.113402 21.113402 0 0 0 998.734296 242.804124h-238.862956a21.113402 21.113402 0 0 0-14.920137 6.193264l-496.164949 496.164949A21.113402 21.113402 0 0 0 263.706392 781.195876h238.862955a21.113402 21.113402 0 0 0 14.955327-6.193264z" p-id="21075" fill="#1296db"></path></svg>